<svg xmlns="http://www.w3.org/2000/svg" viewBox="0 0 280.15 280.15"><defs><style>.cls-1{fill:#fff;stroke:#fff;stroke-miterlimit:8;stroke-width:0.44px;}</style></defs><g id="图层_2" data-name="图层 2"><g id="图层_1-2" data-name="图层 1"><path class="cls-1" d="M141.81,94.31h-1.6q-3.74,11.19-8.4,24.92t-8.4,27.86h33.06q-3.74-14.4-7.6-28.12T141.81,94.31Z"/><path class="cls-1" d="M140.07.22A139.86,139.86,0,1,0,279.93,140.07,139.86,139.86,0,0,0,140.07.22Zm75.24,79a17,17,0,1,1,17-17A17,17,0,0,1,215.31,79.21Zm-5.8,137.84a45.87,45.87,0,0,1-15.2,2.26,47.35,47.35,0,0,1-10.8-1.06,19.3,19.3,0,0,1-7.2-3.2,16.13,16.13,0,0,1-4.52-5.6,47.45,47.45,0,0,1-3.06-8l-4.8-18.38H115.69q-2.13,8-4.28,16.52t-4.26,16.52a68.17,68.17,0,0,1-7.86,2.28,47,47,0,0,1-10,.92q-13.58,0-20.12-4.66a15,15,0,0,1-6.52-12.92,27.33,27.33,0,0,1,1.06-7.46q1.07-3.75,2.4-8.8,1.86-7.2,5.2-17.86t7.32-23.06q4-12.41,8.54-25.46t8.52-24.64q4-11.61,7.34-20.66t5.18-13.86q4.55-2.68,13.74-5.06a73.15,73.15,0,0,1,18.52-2.4,66.55,66.55,0,0,1,23.58,3.86q10.29,3.86,13.2,12.12,4.8,13.86,10.4,32.26t11.2,38q5.58,19.58,10.92,38.64t9.32,33.72Q215.91,214.78,209.51,217.05Z"/></g></g></svg>