<svg xmlns="http://www.w3.org/2000/svg" xmlns:xlink="http://www.w3.org/1999/xlink" viewBox="0 0 285.41 285.41"><defs><style>.cls-1{fill:none;}.cls-2{fill:#ff4c1b;}.cls-3{clip-path:url(#clip-path);}.cls-4,.cls-6{fill:#fff;}.cls-5{clip-path:url(#clip-path-2);}.cls-6{stroke:#fff;stroke-miterlimit:8;stroke-width:0.44px;}</style><clipPath id="clip-path"><circle class="cls-1" cx="142.71" cy="142.71" r="142.71"/></clipPath><clipPath id="clip-path-2"><circle class="cls-1" cx="217.95" cy="64.81" r="17.38"/></clipPath></defs><g id="图层_2" data-name="图层 2"><g id="图层_1-2" data-name="图层 1"><circle class="cls-2" cx="142.71" cy="142.71" r="139.85"/><g class="cls-3"><circle class="cls-1" cx="142.71" cy="142.71" r="142.71"/></g><circle class="cls-4" cx="217.95" cy="64.81" r="17.03"/><g class="cls-5"><circle class="cls-1" cx="217.95" cy="64.81" r="17.38"/></g><path class="cls-6" d="M110.85,62.56h0q4.53-2.69,13.74-5.06a73,73,0,0,1,18.52-2.4h0A66.78,66.78,0,0,1,166.69,59q10.27,3.85,13.2,12.12h0q4.8,13.86,10.4,32.26t11.2,38q5.58,19.58,10.92,38.64t9.32,33.72h0q-3.18,3.73-9.58,6a45.7,45.7,0,0,1-15.2,2.26h0a46.67,46.67,0,0,1-10.8-1.06,19,19,0,0,1-7.2-3.2,15.93,15.93,0,0,1-4.52-5.6,47.12,47.12,0,0,1-3.06-8h0l-4.8-18.38H118.33q-2.14,8-4.28,16.52t-4.26,16.52h0a68.17,68.17,0,0,1-7.86,2.28,47,47,0,0,1-10,.92h0q-13.59,0-20.12-4.66a15,15,0,0,1-6.52-12.92h0a27,27,0,0,1,1.06-7.46c.7-2.49,1.5-5.43,2.4-8.8h0q1.86-7.2,5.2-17.86t7.32-23.06q4-12.41,8.54-25.46l8.52-24.64q4-11.6,7.34-20.66T110.85,62.56Zm33.6,34.38h-1.6q-3.75,11.2-8.4,24.92t-8.4,27.86h33.06q-3.75-14.4-7.6-28.12t-7.06-24.66Z"/></g></g></svg>